<svg width="73" height="45" viewBox="0 0 73 45" fill="none" xmlns="http://www.w3.org/2000/svg">
<g filter="url(#filter0_d_75_252)">
<mask id="path-1-outside-1_75_252" maskUnits="userSpaceOnUse" x="3.5" y="2.5" width="66" height="38" fill="black">
<rect fill="white" x="3.5" y="2.5" width="66" height="38"/>
<path d="M36.7607 39.2773C36.6109 39.4057 36.3891 39.4057 36.2393 39.2773L29.5 33.5H8.5C6.29086 33.5 4.5 31.7091 4.5 29.5V7.5C4.5 5.29086 6.29086 3.5 8.5 3.5H64.5C66.7091 3.5 68.5 5.29086 68.5 7.5V29.5C68.5 31.7091 66.7091 33.5 64.5 33.5H43.5L36.7607 39.2773Z"/>
</mask>
<path d="M36.7607 39.2773C36.6109 39.4057 36.3891 39.4057 36.2393 39.2773L29.5 33.5H8.5C6.29086 33.5 4.5 31.7091 4.5 29.5V7.5C4.5 5.29086 6.29086 3.5 8.5 3.5H64.5C66.7091 3.5 68.5 5.29086 68.5 7.5V29.5C68.5 31.7091 66.7091 33.5 64.5 33.5H43.5L36.7607 39.2773Z" fill="white"/>
<path d="M36.7607 39.2773L37.0861 39.657L37.0862 39.6569L36.7607 39.2773ZM36.2393 39.2773L35.9138 39.6569L35.9139 39.657L36.2393 39.2773ZM29.5 33.5L29.8254 33.1204L29.685 33H29.5V33.5ZM43.5 33.5V33H43.315L43.1746 33.1204L43.5 33.5ZM36.7607 39.2773L36.4353 38.8977C36.4728 38.8656 36.5272 38.8656 36.5647 38.8977L36.2393 39.2773L35.9139 39.657C36.2509 39.9459 36.7491 39.9459 37.0861 39.657L36.7607 39.2773ZM36.2393 39.2773L36.5647 38.8977L29.8254 33.1204L29.5 33.5L29.1746 33.8796L35.9138 39.6569L36.2393 39.2773ZM29.5 33.5V33H8.5V33.5V34H29.5V33.5ZM8.5 33.5V33C6.567 33 5 31.433 5 29.5H4.5H4C4 31.9853 6.01472 34 8.5 34V33.5ZM4.5 29.5H5V7.5H4.5H4V29.5H4.5ZM4.5 7.5H5C5 5.567 6.567 4 8.5 4V3.5V3C6.01472 3 4 5.01472 4 7.5H4.5ZM8.5 3.5V4H64.5V3.5V3H8.5V3.5ZM64.5 3.5V4C66.433 4 68 5.567 68 7.5H68.5H69C69 5.01472 66.9853 3 64.5 3V3.5ZM68.5 7.5H68V29.5H68.5H69V7.5H68.5ZM68.5 29.5H68C68 31.433 66.433 33 64.5 33V33.5V34C66.9853 34 69 31.9853 69 29.5H68.5ZM64.5 33.5V33H43.5V33.5V34H64.5V33.5ZM43.5 33.5L43.1746 33.1204L36.4353 38.8977L36.7607 39.2773L37.0862 39.6569L43.8254 33.8796L43.5 33.5Z" fill="#DFE0EB" mask="url(#path-1-outside-1_75_252)"/>
</g>
<defs>
<filter id="filter0_d_75_252" x="0" y="0" width="73" height="44.8736" filterUnits="userSpaceOnUse" color-interpolation-filters="sRGB">
<feFlood flood-opacity="0" result="BackgroundImageFix"/>
<feColorMatrix in="SourceAlpha" type="matrix" values="0 0 0 0 0 0 0 0 0 0 0 0 0 0 0 0 0 0 127 0" result="hardAlpha"/>
<feOffset dy="1"/>
<feGaussianBlur stdDeviation="2"/>
<feColorMatrix type="matrix" values="0 0 0 0 0 0 0 0 0 0 0 0 0 0 0 0 0 0 0.08 0"/>
<feBlend mode="normal" in2="BackgroundImageFix" result="effect1_dropShadow_75_252"/>
<feBlend mode="normal" in="SourceGraphic" in2="effect1_dropShadow_75_252" result="shape"/>
</filter>
</defs>
</svg>
